<svg xmlns="http://www.w3.org/2000/svg" xmlns:xlink="http://www.w3.org/1999/xlink" width="512" zoomAndPan="magnify" viewBox="0 0 384 383.999986" height="512" preserveAspectRatio="xMidYMid meet" version="1.0"><defs><clipPath id="9094fd2617"><path d="M 86.398438 0 L 297.601562 0 C 320.515625 0 342.492188 9.101562 358.695312 25.304688 C 374.898438 41.507812 384 63.484375 384 86.398438 L 384 297.601562 C 384 345.316406 345.316406 384 297.601562 384 L 86.398438 384 C 38.683594 384 0 345.316406 0 297.601562 L 0 86.398438 C 0 38.683594 38.683594 0 86.398438 0 Z M 86.398438 0 " clip-rule="nonzero"/></clipPath><clipPath id="68692d278d"><path d="M 0 0 L 384 0 L 384 384 L 0 384 Z M 0 0 " clip-rule="nonzero"/></clipPath><clipPath id="fb7ff45cd8"><path d="M 86.398438 0 L 297.601562 0 C 320.515625 0 342.492188 9.101562 358.695312 25.304688 C 374.898438 41.507812 384 63.484375 384 86.398438 L 384 297.601562 C 384 345.316406 345.316406 384 297.601562 384 L 86.398438 384 C 38.683594 384 0 345.316406 0 297.601562 L 0 86.398438 C 0 38.683594 38.683594 0 86.398438 0 Z M 86.398438 0 " clip-rule="nonzero"/></clipPath><clipPath id="0cec291aaa"><rect x="0" width="384" y="0" height="384"/></clipPath><clipPath id="9f34661b7c"><path d="M 83.355469 189 L 195 189 L 195 300.855469 L 83.355469 300.855469 Z M 83.355469 189 " clip-rule="nonzero"/></clipPath><clipPath id="de277764e7"><path d="M 152 83.355469 L 300.855469 83.355469 L 300.855469 233 L 152 233 Z M 152 83.355469 " clip-rule="nonzero"/></clipPath></defs><g clip-path="url(#9094fd2617)"><g><g clip-path="url(#0cec291aaa)"><g clip-path="url(#68692d278d)"><g clip-path="url(#fb7ff45cd8)"><rect x="-84.48" width="552.96" fill="#0f0f0f" height="552.959979" y="-84.479997" fill-opacity="1"/></g></g></g></g></g><g clip-path="url(#9f34661b7c)"><path fill="#ffffff" d="M 109.050781 209.238281 L 83.355469 293.5625 L 128.707031 247.867188 C 126.121094 242.347656 127.15625 235.449219 131.640625 230.792969 C 137.503906 224.929688 147.160156 224.929688 153.023438 230.792969 C 158.886719 236.65625 158.886719 246.3125 153.023438 252.175781 C 148.195312 257.003906 141.125 257.867188 135.433594 254.9375 L 90.082031 300.632812 L 174.75 274.9375 L 194.582031 225.105469 L 158.714844 189.582031 Z M 109.050781 209.238281 " fill-opacity="1" fill-rule="nonzero"/></g><g clip-path="url(#de277764e7)"><path fill="#ffffff" d="M 221.828125 83.355469 L 152.679688 169.40625 L 215.792969 232.519531 L 300.632812 162.164062 Z M 221.828125 83.355469 " fill-opacity="1" fill-rule="nonzero"/></g></svg>